<?xml version="1.0" encoding="UTF-8" standalone="no"?>
<svg
   width="38.91898mm"
   height="9.3427505mm"
   viewBox="0 0 147.09535 35.311185"
   fill="none"
   version="1.1"
   id="svg73"
   sodipodi:docname="vexnes_logo2.svg"
   xml:space="preserve"
   inkscape:version="1.2.2 (b0a8486541, 2022-12-01)"
   xmlns:inkscape="http://www.inkscape.org/namespaces/inkscape"
   xmlns:sodipodi="http://sodipodi.sourceforge.net/DTD/sodipodi-0.dtd"
   xmlns="http://www.w3.org/2000/svg"
   xmlns:svg="http://www.w3.org/2000/svg"><defs
     id="defs77" /><sodipodi:namedview
     id="namedview75"
     pagecolor="#a3a3a3"
     bordercolor="#000000"
     borderopacity="0.25"
     inkscape:showpageshadow="2"
     inkscape:pageopacity="0"
     inkscape:pagecheckerboard="false"
     inkscape:deskcolor="#d1d1d1"
     showgrid="true"
     showguides="true"
     inkscape:zoom="5.6568542"
     inkscape:cx="86.974134"
     inkscape:cy="8.3085047"
     inkscape:window-width="1916"
     inkscape:window-height="1060"
     inkscape:window-x="0"
     inkscape:window-y="16"
     inkscape:window-maximized="1"
     inkscape:current-layer="layer1"
     inkscape:document-units="mm"
     guidecolor="#e5009b"
     guideopacity="0.6"><sodipodi:guide
       position="75.408835,27.536641"
       orientation="0,-1"
       id="guide1081"
       inkscape:locked="false" /><sodipodi:guide
       position="65.467605,7.8190209"
       orientation="0,-1"
       id="guide1083"
       inkscape:locked="false" /><sodipodi:guide
       position="130.74927,38.47447"
       orientation="0,-1"
       id="guide1439"
       inkscape:locked="false" /><sodipodi:guide
       position="69.735705,17.796521"
       orientation="0,-1"
       id="guide1443"
       inkscape:locked="false" /><inkscape:grid
       type="xygrid"
       id="grid423"
       originx="-88.625711"
       originy="-42.538273" /><sodipodi:guide
       position="77.999275,36.09947"
       orientation="1,0"
       id="guide425"
       inkscape:locked="false" /></sodipodi:namedview><path
     fill-rule="evenodd"
     clip-rule="evenodd"
     d="m 14.175996,20.280001 c -0.12507,-0.3095 -0.25014,-1.4656 -0.25014,-2.1467 0,-3.6748 2.60661,-6.8544 9.44581,-6.8544 h 3.5861 c 0,0 -0.8083,0.3513 -2.5856,1.6514 -1.7766,1.3008 -10.19617,7.3497 -10.19617,7.3497 z m 28.14917,-2.7638 12.9286,-9.6820999 h -6.4225 l -9.717,7.3692999 -2.5711,-1.6716 h -6.1033 l 5.5464,4.0665 -4.2951,3.5921 c -2.1899,1.8371 -5.258,4.4054 -9.8039,4.4054 -1.793,0 -4.3338,-0.4002 -5.7517,-1.9492 l 20.9565,-15.8124999 h -12.6778 c -7.7567,0 -11.71868,4.4379999 -11.71868,9.9296999 0,1.1353 0.25013,2.5592 0.54173,3.22 l -8.694747,6.3794 h 6.65156 l 4.024537,-3.0141 c 1.4593,1.7961 4.5675,3.4676 7.8587,3.4846 5.422,0.0456 10.3147,-3.525 12.0545,-4.889 l 3.9409,-3.0961 10.2798,7.5146 h 7.19 z"
     fill="#ffcf01"
     id="path71"
     style="display:inline" /><g
     inkscape:groupmode="layer"
     id="layer1"
     inkscape:label="V"
     transform="translate(-88.625714,-42.538273)"><g
       aria-label="vExnes
  
"
       id="text1381"
       style="font-weight:bold;font-size:26.6667px;line-height:0.6;font-family:'DejaVu Sans';-inkscape-font-specification:'DejaVu Sans Bold';letter-spacing:0.17px;display:inline;fill:#ffffff"><path
         d="m 150.70702,46.909367 h 2.28515 l 4.10156,11.015625 4.10157,-11.015625 h 2.28515 l -4.92187,13.125 h -2.92969 z"
         style="font-weight:normal;font-size:24px;-inkscape-font-specification:'DejaVu Sans';display:inline"
         id="path533" /><path
         d="m 166.72077,42.538273 h 11.0625 v 1.992187 h -8.69532 v 5.179688 h 8.33203 v 1.992187 h -8.33203 v 6.339844 h 8.90625 v 1.992188 h -11.27343 z"
         style="font-weight:normal;font-size:24px;-inkscape-font-specification:'DejaVu Sans';display:inline"
         id="path535" /><path
         d="m 192.87123,46.909367 -4.74609,6.386718 4.99219,6.738282 h -2.54297 l -3.82031,-5.15625 -3.82032,5.15625 h -2.54296 l 5.09765,-6.867188 -4.66406,-6.257812 h 2.54297 l 3.48047,4.675781 3.48047,-4.675781 z"
         style="font-weight:normal;font-size:24px;-inkscape-font-specification:'DejaVu Sans';display:inline"
         id="path537" /><path
         d="m 207.24436,52.112492 v 7.921875 h -2.15625 v -7.851563 q 0,-1.863281 -0.72656,-2.789062 -0.72657,-0.925782 -2.17969,-0.925782 -1.7461,0 -2.75391,1.113282 -1.00781,1.113281 -1.00781,3.035156 v 7.417969 h -2.16797 v -13.125 h 2.16797 v 2.039062 q 0.77344,-1.183594 1.81641,-1.769531 1.05468,-0.585938 2.42578,-0.585938 2.26172,0 3.42187,1.40625 1.16016,1.394532 1.16016,4.113282 z"
         style="font-weight:normal;font-size:24px;-inkscape-font-specification:'DejaVu Sans';display:inline"
         id="path539" /><path
         d="m 222.9417,52.932804 v 1.054688 h -9.91406 q 0.14063,2.226562 1.33594,3.398437 1.20703,1.160156 3.35156,1.160156 1.24219,0 2.40235,-0.304687 1.17187,-0.304688 2.32031,-0.914063 v 2.039063 q -1.16016,0.492187 -2.37891,0.75 -1.21875,0.257812 -2.47265,0.257812 -3.14063,0 -4.98047,-1.828125 -1.82813,-1.828125 -1.82813,-4.945312 0,-3.222656 1.73438,-5.109375 1.74609,-1.898438 4.69922,-1.898438 2.64843,0 4.18359,1.710938 1.54687,1.699219 1.54687,4.628906 z m -2.15625,-0.632812 q -0.0234,-1.769532 -0.99609,-2.824219 -0.96094,-1.054688 -2.55469,-1.054688 -1.80468,0 -2.89453,1.019532 -1.07812,1.019531 -1.24219,2.871093 z"
         style="font-weight:normal;font-size:24px;-inkscape-font-specification:'DejaVu Sans';display:inline"
         id="path541" /><path
         d="m 235.01795,47.296085 v 2.039063 q -0.91406,-0.46875 -1.89844,-0.703125 -0.98437,-0.234375 -2.03906,-0.234375 -1.60547,0 -2.41406,0.492187 -0.79688,0.492188 -0.79688,1.476563 0,0.75 0.57422,1.183594 0.57422,0.421875 2.3086,0.808593 l 0.73828,0.164063 q 2.29687,0.492187 3.25781,1.394531 0.97266,0.890625 0.97266,2.496094 0,1.828125 -1.45313,2.894531 -1.4414,1.066406 -3.97265,1.066406 -1.05469,0 -2.20313,-0.210937 -1.13672,-0.199219 -2.40234,-0.609375 v -2.226563 q 1.19531,0.621094 2.35547,0.9375 1.16015,0.304688 2.29687,0.304688 1.52344,0 2.34375,-0.515625 0.82031,-0.527344 0.82031,-1.476563 0,-0.878906 -0.59765,-1.347656 -0.58594,-0.46875 -2.58985,-0.902344 l -0.75,-0.175781 q -2.0039,-0.421875 -2.89453,-1.289062 -0.89062,-0.878907 -0.89062,-2.402344 0,-1.851563 1.3125,-2.859375 1.3125,-1.007813 3.72656,-1.007813 1.19531,0 2.25,0.175782 1.05469,0.175781 1.94531,0.527343 z"
         style="font-weight:normal;font-size:24px;-inkscape-font-specification:'DejaVu Sans';display:inline"
         id="path543" /></g><path
       style="display:inline;fill:#ffcf01;fill-opacity:1"
       d="m 93.456553,69.892535 -4.830839,-13.885718 6.452754,0.007 5.076282,13.912023 z"
       id="path1499" /><g
       aria-label="Trading"
       id="text656"
       style="font-size:16px;line-height:0.6;font-family:'DejaVu Sans';-inkscape-font-specification:'DejaVu Sans';text-align:center;letter-spacing:0px;text-anchor:middle;display:inline;fill:#ffffff"><path
         d="m 166.67949,62.857269 h 9.86719 v 1.328125 h -4.14063 v 10.335938 h -1.58594 V 64.185394 h -4.14062 z"
         id="path546" /><path
         d="m 180.72636,67.115082 q -0.24218,-0.140625 -0.53125,-0.203125 -0.28125,-0.07031 -0.625,-0.07031 -1.21875,0 -1.875,0.796875 -0.64843,0.789063 -0.64843,2.273438 v 4.609375 h -1.44532 v -8.75 h 1.44532 v 1.359375 q 0.45312,-0.796875 1.17968,-1.179688 0.72657,-0.390625 1.76563,-0.390625 0.14844,0 0.32812,0.02344 0.17969,0.01563 0.39844,0.05469 z"
         id="path548" /><path
         d="m 186.21074,70.122894 q -1.74219,0 -2.41406,0.398438 -0.67188,0.398437 -0.67188,1.359375 0,0.765625 0.5,1.21875 0.50781,0.445312 1.375,0.445312 1.19531,0 1.91406,-0.84375 0.72657,-0.851562 0.72657,-2.257812 v -0.320313 z m 2.86719,-0.59375 v 4.992188 h -1.4375 v -1.328125 q -0.49219,0.796875 -1.22657,1.179687 -0.73437,0.375 -1.79687,0.375 -1.34375,0 -2.14063,-0.75 -0.78906,-0.757812 -0.78906,-2.023437 0,-1.476563 0.98438,-2.226563 0.99218,-0.75 2.95312,-0.75 h 2.01563 v -0.140625 q 0,-0.992187 -0.65625,-1.53125 -0.64844,-0.546875 -1.82813,-0.546875 -0.75,0 -1.46094,0.179688 -0.71093,0.179687 -1.36718,0.539062 v -1.328125 q 0.78906,-0.304687 1.53125,-0.453125 0.74218,-0.15625 1.44531,-0.15625 1.89844,0 2.83594,0.984375 0.9375,0.984375 0.9375,2.984375 z"
         id="path550" /><path
         d="m 197.79668,67.099457 v -4.734375 h 1.4375 v 12.15625 h -1.4375 v -1.3125 q -0.45313,0.78125 -1.14844,1.164062 -0.6875,0.375 -1.65625,0.375 -1.58594,0 -2.58594,-1.265625 -0.99219,-1.265625 -0.99219,-3.328125 0,-2.0625 0.99219,-3.328125 1,-1.265625 2.58594,-1.265625 0.96875,0 1.65625,0.382813 0.69531,0.375 1.14844,1.15625 z m -4.89844,3.054687 q 0,1.585938 0.64844,2.492188 0.65625,0.898437 1.79687,0.898437 1.14063,0 1.79688,-0.898437 0.65625,-0.90625 0.65625,-2.492188 0,-1.585937 -0.65625,-2.484375 -0.65625,-0.90625 -1.79688,-0.90625 -1.14062,0 -1.79687,0.90625 -0.64844,0.898438 -0.64844,2.484375 z"
         id="path552" /><path
         d="m 202.19511,65.771332 h 1.4375 v 8.75 h -1.4375 z m 0,-3.40625 h 1.4375 v 1.820312 h -1.4375 z"
         id="path554" /><path
         d="m 213.91386,69.240082 v 5.28125 h -1.4375 v -5.234375 q 0,-1.242188 -0.48437,-1.859375 -0.48438,-0.617188 -1.45313,-0.617188 -1.16406,0 -1.83593,0.742188 -0.67188,0.742187 -0.67188,2.023437 v 4.945313 h -1.44531 v -8.75 h 1.44531 v 1.359375 q 0.51563,-0.789063 1.21094,-1.179688 0.70312,-0.390625 1.61719,-0.390625 1.50781,0 2.28125,0.9375 0.77343,0.929688 0.77343,2.742188 z"
         id="path556" /><path
         d="m 222.53886,70.044769 q 0,-1.5625 -0.64843,-2.421875 -0.64063,-0.859375 -1.80469,-0.859375 -1.15625,0 -1.80469,0.859375 -0.64062,0.859375 -0.64062,2.421875 0,1.554688 0.64062,2.414063 0.64844,0.859375 1.80469,0.859375 1.16406,0 1.80469,-0.859375 0.64843,-0.859375 0.64843,-2.414063 z m 1.4375,3.390625 q 0,2.234375 -0.99218,3.320313 -0.99219,1.09375 -3.03907,1.09375 -0.75781,0 -1.42968,-0.117188 -0.67188,-0.109375 -1.30469,-0.34375 v -1.398437 q 0.63281,0.34375 1.25,0.507812 0.61719,0.164063 1.25781,0.164063 1.41406,0 2.11719,-0.742188 0.70312,-0.734375 0.70312,-2.226562 v -0.710938 q -0.44531,0.773438 -1.14062,1.15625 -0.69531,0.382813 -1.66406,0.382813 -1.60938,0 -2.59375,-1.226563 -0.98438,-1.226562 -0.98438,-3.25 0,-2.03125 0.98438,-3.257812 0.98437,-1.226563 2.59375,-1.226563 0.96875,0 1.66406,0.382813 0.69531,0.382812 1.14062,1.15625 v -1.328125 h 1.4375 z"
         id="path558" /></g></g></svg>
