<?xml version="1.0" encoding="UTF-8" standalone="no"?>
<svg
   width="14.96022mm"
   height="5.2916751mm"
   viewBox="0 0 56.542563 20.000033"
   fill="none"
   version="1.1"
   id="svg73"
   sodipodi:docname="vexnes_logo2.svg"
   xml:space="preserve"
   inkscape:version="1.2.2 (b0a8486541, 2022-12-01)"
   xmlns:inkscape="http://www.inkscape.org/namespaces/inkscape"
   xmlns:sodipodi="http://sodipodi.sourceforge.net/DTD/sodipodi-0.dtd"
   xmlns="http://www.w3.org/2000/svg"
   xmlns:svg="http://www.w3.org/2000/svg"><defs
     id="defs77" /><sodipodi:namedview
     id="namedview75"
     pagecolor="#a3a3a3"
     bordercolor="#000000"
     borderopacity="0.25"
     inkscape:showpageshadow="2"
     inkscape:pageopacity="0"
     inkscape:pagecheckerboard="false"
     inkscape:deskcolor="#d1d1d1"
     showgrid="true"
     showguides="true"
     inkscape:zoom="5.6568542"
     inkscape:cx="86.974134"
     inkscape:cy="8.3085047"
     inkscape:window-width="1916"
     inkscape:window-height="1060"
     inkscape:window-x="0"
     inkscape:window-y="16"
     inkscape:window-maximized="1"
     inkscape:current-layer="layer1"
     inkscape:document-units="mm"
     guidecolor="#e5009b"
     guideopacity="0.6"><sodipodi:guide
       position="75.408835,20.05959"
       orientation="0,-1"
       id="guide1081"
       inkscape:locked="false" /><sodipodi:guide
       position="65.467605,0.34197046"
       orientation="0,-1"
       id="guide1083"
       inkscape:locked="false" /><sodipodi:guide
       position="130.74927,30.997419"
       orientation="0,-1"
       id="guide1439"
       inkscape:locked="false" /><sodipodi:guide
       position="69.735705,10.319471"
       orientation="0,-1"
       id="guide1443"
       inkscape:locked="false" /><inkscape:grid
       type="xygrid"
       id="grid423"
       originx="-88.625711"
       originy="-42.538273" /><sodipodi:guide
       position="77.999275,28.622419"
       orientation="1,0"
       id="guide425"
       inkscape:locked="false" /></sodipodi:namedview><path
     fill-rule="evenodd"
     clip-rule="evenodd"
     d="m 14.175996,12.4459 c -0.12507,-0.3095 -0.25014,-1.4656 -0.25014,-2.1467 0,-3.6748 2.60661,-6.8544 9.44581,-6.8544 h 3.5861 c 0,0 -0.8083,0.3513 -2.5856,1.6514 -1.7766,1.3008 -10.19617,7.3497 -10.19617,7.3497 z M 42.325166,9.6821 55.253766,7.6514088e-8 h -6.4225 L 39.114266,7.3693 36.543166,5.6977 h -6.1033 l 5.5464,4.0665 -4.2951,3.5921 c -2.1899,1.8371 -5.258,4.4054 -9.8039,4.4054 -1.793,0 -4.3338,-0.4002 -5.7517,-1.9492 L 37.092066,7.6514087e-8 h -12.6778 C 16.657566,7.6514087e-8 12.695586,4.438 12.695586,9.9297 c 0,1.1353 0.25013,2.5592 0.54173,3.22 l -8.694747,6.3794 h 6.65156 l 4.024537,-3.0141 c 1.4593,1.7961 4.5675,3.4676 7.8587,3.4846 5.422,0.0456 10.3147,-3.525 12.0545,-4.889 l 3.9409,-3.0961 10.2798,7.5146 h 7.19 z"
     fill="#ffcf01"
     id="path71"
     style="display:inline" /><g
     inkscape:groupmode="layer"
     id="layer1"
     inkscape:label="V"
     transform="translate(-88.625714,-50.372374)"><path
       style="display:inline;fill:#ffcf01;fill-opacity:1"
       d="m 93.456553,69.892535 -4.830839,-13.885718 6.452754,0.007 5.076282,13.912023 z"
       id="path1499" /></g></svg>
